<svg width="1543" height="344" viewBox="0 0 1543 344" fill="none" xmlns="http://www.w3.org/2000/svg">
<path d="M0.418945 72.204H39.0749V183.944L35.1489 227.734H36.0549L56.893 188.172L132.393 72.204H168.029V283H129.373V171.26L133.299 127.47H132.393L111.555 166.73L36.0549 283H0.418945V72.204ZM84.3749 57.104C71.6909 57.104 61.5236 54.4867 53.8729 49.252C46.2223 43.816 40.1823 36.1653 35.7529 26.3L29.4109 12.106L60.2149 0.026001L70.181 29.018C71.7916 29.622 73.9056 30.1253 76.5229 30.528C79.1403 30.7293 81.7576 30.83 84.3749 30.83C86.9923 30.83 89.6096 30.7293 92.2269 30.528C94.8443 30.1253 96.9583 29.622 98.5689 29.018L108.535 0.026001L139.339 12.106L132.997 26.3C128.568 36.1653 122.528 43.816 114.877 49.252C107.226 54.4867 97.0589 57.104 84.3749 57.104Z" fill="white"/>
<path d="M277.579 286.624C266.305 286.624 256.137 284.711 247.077 280.886C238.219 277.061 230.568 271.524 224.125 264.276C217.884 257.028 213.052 248.371 209.629 238.304C206.207 228.036 204.495 216.56 204.495 203.876C204.495 191.192 206.207 179.817 209.629 169.75C213.052 159.683 217.884 151.127 224.125 144.08C230.568 136.832 238.219 131.295 247.077 127.47C256.137 123.645 266.305 121.732 277.579 121.732C288.854 121.732 299.021 123.645 308.081 127.47C317.141 131.295 324.792 136.832 331.033 144.08C337.476 151.127 342.409 159.683 345.831 169.75C349.254 179.817 350.965 191.192 350.965 203.876C350.965 216.56 349.254 228.036 345.831 238.304C342.409 248.371 337.476 257.028 331.033 264.276C324.792 271.524 317.141 277.061 308.081 280.886C299.021 284.711 288.854 286.624 277.579 286.624ZM277.579 255.518C287.847 255.518 295.901 252.397 301.739 246.156C307.578 239.915 310.497 230.754 310.497 218.674V189.38C310.497 177.501 307.578 168.441 301.739 162.2C295.901 155.959 287.847 152.838 277.579 152.838C267.513 152.838 259.56 155.959 253.721 162.2C247.883 168.441 244.963 177.501 244.963 189.38V218.674C244.963 230.754 247.883 239.915 253.721 246.156C259.56 252.397 267.513 255.518 277.579 255.518Z" fill="white"/>
<path d="M479.811 125.356H516.051L452.631 311.086C450.618 316.723 448.302 321.555 445.685 325.582C443.269 329.81 440.35 333.233 436.927 335.85C433.504 338.467 429.377 340.38 424.545 341.588C419.713 342.796 414.076 343.4 407.633 343.4H384.379V312.596H412.767L420.015 290.55L363.541 125.356H401.895L429.377 208.708L439.645 248.572H441.457L452.329 208.708L479.811 125.356Z" fill="white"/>
<path d="M612.915 125.356H657.309L698.985 194.816H700.193L741.265 125.356H784.451V283H747.003V173.072H745.795L734.923 193.608L698.683 253.404L662.443 193.608L651.571 173.072H650.363V283H612.915V125.356Z" fill="white"/>
<path d="M945.061 283C936.605 283 929.86 280.584 924.827 275.752C919.995 270.719 916.975 264.075 915.767 255.82H913.955C911.337 266.088 906.002 273.839 897.949 279.074C889.895 284.107 879.93 286.624 868.051 286.624C851.944 286.624 839.562 282.396 830.905 273.94C822.247 265.484 817.919 254.209 817.919 240.116C817.919 223.808 823.757 211.728 835.435 203.876C847.112 195.823 863.722 191.796 885.265 191.796H912.143V180.32C912.143 171.461 909.828 164.616 905.197 159.784C900.566 154.952 893.117 152.536 882.849 152.536C873.789 152.536 866.44 154.549 860.803 158.576C855.367 162.401 850.736 167.032 846.911 172.468L823.959 151.932C829.797 142.872 837.549 135.624 847.213 130.188C856.877 124.551 869.662 121.732 885.567 121.732C906.908 121.732 923.116 126.564 934.189 136.228C945.262 145.892 950.799 159.784 950.799 177.904V252.196H966.503V283H945.061ZM881.037 258.538C889.694 258.538 897.043 256.625 903.083 252.8C909.123 248.975 912.143 243.337 912.143 235.888V215.05H887.379C867.246 215.05 857.179 221.493 857.179 234.378V239.512C857.179 245.955 859.192 250.787 863.219 254.008C867.447 257.028 873.386 258.538 881.037 258.538Z" fill="white"/>
<path d="M997.788 125.356H1036.44V151.328H1037.65C1040.47 142.268 1045.81 135.121 1053.66 129.886C1061.51 124.45 1070.67 121.732 1081.14 121.732C1101.27 121.732 1116.57 128.879 1127.04 143.174C1137.71 157.267 1143.05 177.501 1143.05 203.876C1143.05 230.452 1137.71 250.887 1127.04 265.182C1116.57 279.477 1101.27 286.624 1081.14 286.624C1070.67 286.624 1061.51 283.906 1053.66 278.47C1046.01 273.034 1040.67 265.786 1037.65 256.726H1036.44V343.4H997.788V125.356ZM1068.76 254.612C1078.82 254.612 1086.98 251.29 1093.22 244.646C1099.46 238.002 1102.58 229.043 1102.58 217.768V190.588C1102.58 179.313 1099.46 170.354 1093.22 163.71C1086.98 156.865 1078.82 153.442 1068.76 153.442C1059.5 153.442 1051.75 155.757 1045.5 160.388C1039.46 165.019 1036.44 171.159 1036.44 178.81V228.942C1036.44 237.197 1039.46 243.539 1045.5 247.968C1051.75 252.397 1059.5 254.612 1068.76 254.612Z" fill="white"/>
<path d="M1178.87 125.356H1217.53V175.186H1256.79C1264.44 175.186 1271.48 176.394 1277.93 178.81C1284.57 181.226 1290.21 184.749 1294.84 189.38C1299.67 193.809 1303.39 199.346 1306.01 205.99C1308.83 212.634 1310.24 220.285 1310.24 228.942C1310.24 237.599 1308.93 245.351 1306.31 252.196C1303.7 258.84 1299.97 264.477 1295.14 269.108C1290.51 273.537 1284.87 276.96 1278.23 279.376C1271.79 281.792 1264.64 283 1256.79 283H1178.87V125.356ZM1248.93 254.31C1255.78 254.31 1261.11 252.699 1264.94 249.478C1268.97 246.257 1270.98 241.425 1270.98 234.982V223.204C1270.98 216.761 1268.97 211.929 1264.94 208.708C1261.11 205.487 1255.78 203.876 1248.93 203.876H1217.53V254.31H1248.93ZM1332.29 125.356H1370.94V283H1332.29V125.356Z" fill="white"/>
<path d="M1503.57 214.446H1502.06C1498.04 220.486 1492.6 225.419 1485.76 229.244C1478.91 232.868 1470.15 234.68 1459.48 234.68C1425.46 234.68 1408.44 216.661 1408.44 180.622V125.356H1447.1V178.508C1447.1 186.964 1449.21 193.105 1453.44 196.93C1457.67 200.755 1464.42 202.668 1473.68 202.668C1483.14 202.668 1490.49 201.158 1495.72 198.138C1500.96 195.118 1503.57 190.991 1503.57 185.756V125.356H1542.23V283H1503.57V214.446Z" fill="white"/>
</svg>
