<svg width="821" height="55" viewBox="0 0 821 55" fill="none" xmlns="http://www.w3.org/2000/svg">
<path d="M0.92 0.575901H33.32V42.4559H25.4V7.5959H8.84V42.4559H0.92V0.575901ZM55.1061 43.1759C52.8661 43.1759 50.8461 42.7959 49.0461 42.0359C47.2861 41.2759 45.7661 40.1759 44.4861 38.7359C43.2461 37.2959 42.2861 35.5759 41.6061 33.5759C40.9261 31.5359 40.5861 29.2559 40.5861 26.7359C40.5861 24.2159 40.9261 21.9559 41.6061 19.9559C42.2861 17.9559 43.2461 16.2559 44.4861 14.8559C45.7661 13.4159 47.2861 12.3159 49.0461 11.5559C50.8461 10.7959 52.8661 10.4159 55.1061 10.4159C57.3461 10.4159 59.3661 10.7959 61.1661 11.5559C62.9661 12.3159 64.4861 13.4159 65.7261 14.8559C67.0061 16.2559 67.9861 17.9559 68.6661 19.9559C69.3461 21.9559 69.6861 24.2159 69.6861 26.7359C69.6861 29.2559 69.3461 31.5359 68.6661 33.5759C67.9861 35.5759 67.0061 37.2959 65.7261 38.7359C64.4861 40.1759 62.9661 41.2759 61.1661 42.0359C59.3661 42.7959 57.3461 43.1759 55.1061 43.1759ZM55.1061 36.9959C57.1461 36.9959 58.7461 36.3759 59.9061 35.1359C61.0661 33.8959 61.6461 32.0759 61.6461 29.6759V23.8559C61.6461 21.4959 61.0661 19.6959 59.9061 18.4559C58.7461 17.2159 57.1461 16.5959 55.1061 16.5959C53.1061 16.5959 51.5261 17.2159 50.3661 18.4559C49.2061 19.6959 48.6261 21.4959 48.6261 23.8559V29.6759C48.6261 32.0759 49.2061 33.8959 50.3661 35.1359C51.5261 36.3759 53.1061 36.9959 55.1061 36.9959ZM88.8547 43.1759C86.5347 43.1759 84.4747 42.7959 82.6747 42.0359C80.8747 41.2759 79.3547 40.1759 78.1147 38.7359C76.9147 37.2959 75.9947 35.5759 75.3547 33.5759C74.7147 31.5359 74.3947 29.2559 74.3947 26.7359C74.3947 24.2159 74.7147 21.9559 75.3547 19.9559C75.9947 17.9559 76.9147 16.2559 78.1147 14.8559C79.3547 13.4159 80.8747 12.3159 82.6747 11.5559C84.4747 10.7959 86.5347 10.4159 88.8547 10.4159C92.0147 10.4159 94.6147 11.1159 96.6547 12.5159C98.7347 13.9159 100.235 15.8559 101.155 18.3359L94.8547 21.1559C94.4947 19.8359 93.8147 18.7559 92.8147 17.9159C91.8547 17.0359 90.5347 16.5959 88.8547 16.5959C86.6947 16.5959 85.0747 17.2759 83.9947 18.6359C82.9547 19.9959 82.4347 21.7759 82.4347 23.9759V29.6759C82.4347 31.8759 82.9547 33.6559 83.9947 35.0159C85.0747 36.3359 86.6947 36.9959 88.8547 36.9959C90.6947 36.9959 92.1147 36.5359 93.1147 35.6159C94.1147 34.6559 94.8947 33.4759 95.4547 32.0759L101.335 34.8959C100.295 37.6559 98.7147 39.7359 96.5947 41.1359C94.4747 42.4959 91.8947 43.1759 88.8547 43.1759ZM107.256 11.1359H116.076L124.356 24.9359H124.596L132.756 11.1359H141.336V42.4559H133.896V20.6159H133.656L131.496 24.6959L124.296 36.5759L117.096 24.6959L114.936 20.6159H114.696V42.4559H107.256V11.1359ZM162.626 43.1759C160.386 43.1759 158.366 42.7959 156.566 42.0359C154.806 41.2759 153.286 40.1759 152.006 38.7359C150.766 37.2959 149.806 35.5759 149.126 33.5759C148.446 31.5359 148.106 29.2559 148.106 26.7359C148.106 24.2159 148.446 21.9559 149.126 19.9559C149.806 17.9559 150.766 16.2559 152.006 14.8559C153.286 13.4159 154.806 12.3159 156.566 11.5559C158.366 10.7959 160.386 10.4159 162.626 10.4159C164.866 10.4159 166.886 10.7959 168.686 11.5559C170.486 12.3159 172.006 13.4159 173.246 14.8559C174.526 16.2559 175.506 17.9559 176.186 19.9559C176.866 21.9559 177.206 24.2159 177.206 26.7359C177.206 29.2559 176.866 31.5359 176.186 33.5759C175.506 35.5759 174.526 37.2959 173.246 38.7359C172.006 40.1759 170.486 41.2759 168.686 42.0359C166.886 42.7959 164.866 43.1759 162.626 43.1759ZM162.626 36.9959C164.666 36.9959 166.266 36.3759 167.426 35.1359C168.586 33.8959 169.166 32.0759 169.166 29.6759V23.8559C169.166 21.4959 168.586 19.6959 167.426 18.4559C166.266 17.2159 164.666 16.5959 162.626 16.5959C160.626 16.5959 159.046 17.2159 157.886 18.4559C156.726 19.6959 156.146 21.4959 156.146 23.8559V29.6759C156.146 32.0759 156.726 33.8959 157.886 35.1359C159.046 36.3759 160.626 36.9959 162.626 36.9959ZM189.904 17.2559H180.364V11.1359H207.124V17.2559H197.584V42.4559H189.904V17.2559ZM212.784 11.1359H220.464V16.2959H220.704C221.264 14.4959 222.324 13.0759 223.884 12.0359C225.444 10.9559 227.264 10.4159 229.344 10.4159C233.344 10.4159 236.384 11.8359 238.464 14.6759C240.584 17.4759 241.644 21.4959 241.644 26.7359C241.644 32.0159 240.584 36.0759 238.464 38.9159C236.384 41.7559 233.344 43.1759 229.344 43.1759C227.264 43.1759 225.444 42.6359 223.884 41.5559C222.364 40.4759 221.304 39.0359 220.704 37.2359H220.464V54.4559H212.784V11.1359ZM226.884 36.8159C228.884 36.8159 230.504 36.1559 231.744 34.8359C232.984 33.5159 233.604 31.7359 233.604 29.4959V24.0959C233.604 21.8559 232.984 20.0759 231.744 18.7559C230.504 17.3959 228.884 16.7159 226.884 16.7159C225.044 16.7159 223.504 17.1759 222.264 18.0959C221.064 19.0159 220.464 20.2359 220.464 21.7559V31.7159C220.464 33.3559 221.064 34.6159 222.264 35.4959C223.504 36.3759 225.044 36.8159 226.884 36.8159ZM248.76 11.1359H256.26V25.1159L255.6 32.4359H255.84L259.5 25.7759L269.28 11.1359H276.18V42.4559H268.68V28.4759L269.34 21.0959H269.1L265.44 27.8159L255.66 42.4559H248.76V11.1359ZM289.708 33.2159C291.348 33.2159 292.548 33.6359 293.308 34.4759C294.108 35.3159 294.508 36.3759 294.508 37.6559V38.7359C294.508 39.8159 294.348 40.9359 294.028 42.0959C293.748 43.2559 293.328 44.3759 292.768 45.4559C292.248 46.5359 291.608 47.5559 290.848 48.5159C290.128 49.4759 289.308 50.3159 288.388 51.0359H282.928C284.288 49.7159 285.428 48.4159 286.348 47.1359C287.268 45.8959 287.968 44.5159 288.448 42.9959C287.208 42.7959 286.308 42.3159 285.748 41.5559C285.188 40.7559 284.908 39.8159 284.908 38.7359V37.6559C284.908 36.3759 285.288 35.3159 286.048 34.4759C286.808 33.6359 288.028 33.2159 289.708 33.2159ZM334.658 28.8359H334.358C333.558 30.0359 332.478 31.0159 331.118 31.7759C329.758 32.4959 328.018 32.8559 325.898 32.8559C319.138 32.8559 315.758 29.2759 315.758 22.1159V11.1359H323.438V21.6959C323.438 23.3759 323.858 24.5959 324.698 25.3559C325.538 26.1159 326.878 26.4959 328.718 26.4959C330.598 26.4959 332.058 26.1959 333.098 25.5959C334.138 24.9959 334.658 24.1759 334.658 23.1359V11.1359H342.338V42.4559H334.658V28.8359ZM357.541 17.2559H348.001V11.1359H374.761V17.2559H365.221V42.4559H357.541V17.2559ZM392.43 43.1759C390.19 43.1759 388.17 42.7959 386.37 42.0359C384.61 41.2759 383.09 40.1759 381.81 38.7359C380.57 37.2959 379.61 35.5759 378.93 33.5759C378.25 31.5359 377.91 29.2559 377.91 26.7359C377.91 24.2159 378.25 21.9559 378.93 19.9559C379.61 17.9559 380.57 16.2559 381.81 14.8559C383.09 13.4159 384.61 12.3159 386.37 11.5559C388.17 10.7959 390.19 10.4159 392.43 10.4159C394.67 10.4159 396.69 10.7959 398.49 11.5559C400.29 12.3159 401.81 13.4159 403.05 14.8559C404.33 16.2559 405.31 17.9559 405.99 19.9559C406.67 21.9559 407.01 24.2159 407.01 26.7359C407.01 29.2559 406.67 31.5359 405.99 33.5759C405.31 35.5759 404.33 37.2959 403.05 38.7359C401.81 40.1759 400.29 41.2759 398.49 42.0359C396.69 42.7959 394.67 43.1759 392.43 43.1759ZM392.43 36.9959C394.47 36.9959 396.07 36.3759 397.23 35.1359C398.39 33.8959 398.97 32.0759 398.97 29.6759V23.8559C398.97 21.4959 398.39 19.6959 397.23 18.4559C396.07 17.2159 394.47 16.5959 392.43 16.5959C390.43 16.5959 388.85 17.2159 387.69 18.4559C386.53 19.6959 385.95 21.4959 385.95 23.8559V29.6759C385.95 32.0759 386.53 33.8959 387.69 35.1359C388.85 36.3759 390.43 36.9959 392.43 36.9959ZM461.378 11.1359H468.578L455.978 48.0359C455.578 49.1559 455.118 50.1159 454.598 50.9159C454.118 51.7559 453.538 52.4359 452.858 52.9559C452.178 53.4759 451.358 53.8559 450.398 54.0959C449.438 54.3359 448.318 54.4559 447.038 54.4559H442.418V48.3359H448.058L449.498 43.9559L438.278 11.1359H445.898L451.358 27.6959L453.398 35.6159H453.758L455.918 27.6959L461.378 11.1359ZM487.823 11.1359H496.643L504.923 24.9359H505.163L513.323 11.1359H521.903V42.4559H514.463V20.6159H514.223L512.063 24.6959L504.863 36.5759L497.663 24.6959L495.503 20.6159H495.263V42.4559H487.823V11.1359ZM543.432 43.1759C541.112 43.1759 539.032 42.7959 537.192 42.0359C535.392 41.2359 533.852 40.1359 532.572 38.7359C531.332 37.2959 530.372 35.5759 529.692 33.5759C529.012 31.5359 528.672 29.2559 528.672 26.7359C528.672 24.2559 528.992 22.0159 529.632 20.0159C530.312 18.0159 531.272 16.3159 532.512 14.9159C533.752 13.4759 535.272 12.3759 537.072 11.6159C538.872 10.8159 540.912 10.4159 543.192 10.4159C545.632 10.4159 547.752 10.8359 549.552 11.6759C551.352 12.5159 552.832 13.6559 553.992 15.0959C555.152 16.5359 556.012 18.2159 556.572 20.1359C557.172 22.0159 557.472 24.0359 557.472 26.1959V28.7159H536.652V29.4959C536.652 31.7759 537.292 33.6159 538.572 35.0159C539.852 36.3759 541.752 37.0559 544.272 37.0559C546.192 37.0559 547.752 36.6559 548.952 35.8559C550.192 35.0559 551.292 34.0359 552.252 32.7959L556.392 37.4159C555.112 39.2159 553.352 40.6359 551.112 41.6759C548.912 42.6759 546.352 43.1759 543.432 43.1759ZM543.312 16.1759C541.272 16.1759 539.652 16.8559 538.452 18.2159C537.252 19.5759 536.652 21.3359 536.652 23.4959V23.9759H549.492V23.4359C549.492 21.2759 548.952 19.5359 547.872 18.2159C546.832 16.8559 545.312 16.1759 543.312 16.1759ZM564.229 11.1359H571.909V23.4359H583.969V11.1359H591.649V42.4559H583.969V29.5559H571.909V42.4559H564.229V11.1359ZM598.637 36.3359H601.997L603.617 33.0359C604.377 31.4359 605.517 30.5359 607.037 30.3359V30.0359C604.637 29.7559 602.717 28.8959 601.277 27.4559C599.877 26.0159 599.177 23.9759 599.177 21.3359C599.177 19.7359 599.437 18.3159 599.957 17.0759C600.517 15.7959 601.257 14.7159 602.177 13.8359C603.137 12.9559 604.257 12.2959 605.537 11.8559C606.857 11.3759 608.277 11.1359 609.797 11.1359H625.937V42.4559H618.257V31.2359H612.437L609.137 38.0159C608.337 39.6959 607.417 40.8559 606.377 41.4959C605.377 42.1359 604.117 42.4559 602.597 42.4559H598.637V36.3359ZM618.257 25.5359V16.8359H611.357C609.997 16.8359 608.917 17.1559 608.117 17.7959C607.357 18.4359 606.977 19.3959 606.977 20.6759V21.9359C606.977 23.0959 607.357 23.9959 608.117 24.6359C608.917 25.2359 609.997 25.5359 611.357 25.5359H618.257ZM661.616 43.1759C659.296 43.1759 657.216 42.7959 655.376 42.0359C653.576 41.2359 652.036 40.1359 650.756 38.7359C649.516 37.2959 648.556 35.5759 647.876 33.5759C647.196 31.5359 646.856 29.2559 646.856 26.7359C646.856 24.2559 647.176 22.0159 647.816 20.0159C648.496 18.0159 649.456 16.3159 650.696 14.9159C651.936 13.4759 653.456 12.3759 655.256 11.6159C657.056 10.8159 659.096 10.4159 661.376 10.4159C663.816 10.4159 665.936 10.8359 667.736 11.6759C669.536 12.5159 671.016 13.6559 672.176 15.0959C673.336 16.5359 674.196 18.2159 674.756 20.1359C675.356 22.0159 675.656 24.0359 675.656 26.1959V28.7159H654.836V29.4959C654.836 31.7759 655.476 33.6159 656.756 35.0159C658.036 36.3759 659.936 37.0559 662.456 37.0559C664.376 37.0559 665.936 36.6559 667.136 35.8559C668.376 35.0559 669.476 34.0359 670.436 32.7959L674.576 37.4159C673.296 39.2159 671.536 40.6359 669.296 41.6759C667.096 42.6759 664.536 43.1759 661.616 43.1759ZM661.496 16.1759C659.456 16.1759 657.836 16.8559 656.636 18.2159C655.436 19.5759 654.836 21.3359 654.836 23.4959V23.9759H667.676V23.4359C667.676 21.2759 667.136 19.5359 666.056 18.2159C665.016 16.8559 663.496 16.1759 661.496 16.1759ZM694.773 43.1759C692.453 43.1759 690.393 42.7959 688.593 42.0359C686.793 41.2759 685.273 40.1759 684.033 38.7359C682.833 37.2959 681.913 35.5759 681.273 33.5759C680.633 31.5359 680.313 29.2559 680.313 26.7359C680.313 24.2159 680.633 21.9559 681.273 19.9559C681.913 17.9559 682.833 16.2559 684.033 14.8559C685.273 13.4159 686.793 12.3159 688.593 11.5559C690.393 10.7959 692.453 10.4159 694.773 10.4159C697.933 10.4159 700.533 11.1159 702.573 12.5159C704.653 13.9159 706.153 15.8559 707.073 18.3359L700.773 21.1559C700.413 19.8359 699.733 18.7559 698.733 17.9159C697.773 17.0359 696.453 16.5959 694.773 16.5959C692.613 16.5959 690.993 17.2759 689.913 18.6359C688.873 19.9959 688.353 21.7759 688.353 23.9759V29.6759C688.353 31.8759 688.873 33.6559 689.913 35.0159C690.993 36.3359 692.613 36.9959 694.773 36.9959C696.613 36.9959 698.033 36.5359 699.033 35.6159C700.033 34.6559 700.813 33.4759 701.373 32.0759L707.253 34.8959C706.213 37.6559 704.633 39.7359 702.513 41.1359C700.393 42.4959 697.813 43.1759 694.773 43.1759ZM719.885 17.2559H710.345V11.1359H737.105V17.2559H727.565V42.4559H719.885V17.2559ZM742.764 11.1359H750.444V21.0359H758.844C760.404 21.0359 761.824 21.2759 763.104 21.7559C764.424 22.2359 765.544 22.9359 766.464 23.8559C767.424 24.7359 768.164 25.8359 768.684 27.1559C769.244 28.4759 769.524 29.9959 769.524 31.7159C769.524 33.4359 769.244 34.9759 768.684 36.3359C768.164 37.6559 767.424 38.7759 766.464 39.6959C765.544 40.5759 764.424 41.2559 763.104 41.7359C761.824 42.2159 760.424 42.4559 758.904 42.4559H742.764V11.1359ZM757.344 36.7559C758.704 36.7559 759.764 36.4359 760.524 35.7959C761.324 35.1559 761.724 34.1959 761.724 32.9159V30.5759C761.724 29.2959 761.324 28.3359 760.524 27.6959C759.764 27.0559 758.704 26.7359 757.344 26.7359H750.444V36.7559H757.344ZM780.194 43.1159C778.554 43.1159 777.334 42.7159 776.534 41.9159C775.774 41.0759 775.394 40.0159 775.394 38.7359V37.6559C775.394 36.3759 775.774 35.3159 776.534 34.4759C777.334 33.6359 778.554 33.2159 780.194 33.2159C781.874 33.2159 783.094 33.6359 783.854 34.4759C784.614 35.3159 784.994 36.3759 784.994 37.6559V38.7359C784.994 40.0159 784.614 41.0759 783.854 41.9159C783.094 42.7159 781.874 43.1159 780.194 43.1159ZM798.124 43.1159C796.484 43.1159 795.264 42.7159 794.464 41.9159C793.704 41.0759 793.324 40.0159 793.324 38.7359V37.6559C793.324 36.3759 793.704 35.3159 794.464 34.4759C795.264 33.6359 796.484 33.2159 798.124 33.2159C799.804 33.2159 801.024 33.6359 801.784 34.4759C802.544 35.3159 802.924 36.3759 802.924 37.6559V38.7359C802.924 40.0159 802.544 41.0759 801.784 41.9159C801.024 42.7159 799.804 43.1159 798.124 43.1159ZM816.053 43.1159C814.413 43.1159 813.193 42.7159 812.393 41.9159C811.633 41.0759 811.253 40.0159 811.253 38.7359V37.6559C811.253 36.3759 811.633 35.3159 812.393 34.4759C813.193 33.6359 814.413 33.2159 816.053 33.2159C817.733 33.2159 818.953 33.6359 819.713 34.4759C820.473 35.3159 820.853 36.3759 820.853 37.6559V38.7359C820.853 40.0159 820.473 41.0759 819.713 41.9159C818.953 42.7159 817.733 43.1159 816.053 43.1159Z" fill="white"/>
</svg>
