<svg width="281" height="54" viewBox="0 0 281 54" fill="none" xmlns="http://www.w3.org/2000/svg">
<path d="M0.92 3.62H8.6V25.82L7.82 34.52H8L12.14 26.66L27.14 3.62H34.22V45.5H26.54V23.3L27.32 14.6H27.14L23 22.4L8 45.5H0.92V3.62ZM57.7447 14.18H74.9647C77.7647 14.18 79.9047 14.9 81.3847 16.34C82.8647 17.74 83.6047 19.64 83.6047 22.04C83.6047 26 81.4447 28.28 77.1247 28.88V29.12C79.6847 29.36 81.6047 30.1 82.8847 31.34C84.1647 32.58 84.8047 34.24 84.8047 36.32C84.8047 39.04 83.9647 41.26 82.2847 42.98C80.6047 44.66 78.2647 45.5 75.2647 45.5H57.7447V14.18ZM73.7047 39.92C74.7447 39.92 75.5447 39.66 76.1047 39.14C76.6647 38.58 76.9447 37.8 76.9447 36.8V35.12C76.9447 34.12 76.6647 33.36 76.1047 32.84C75.5447 32.28 74.7447 32 73.7047 32H65.2447V39.92H73.7047ZM72.8047 27.14C73.7247 27.14 74.4447 26.88 74.9647 26.36C75.5247 25.84 75.8047 25.12 75.8047 24.2V22.7C75.8047 21.78 75.5247 21.06 74.9647 20.54C74.4447 20.02 73.7247 19.76 72.8047 19.76H65.2447V27.14H72.8047ZM104.442 46.22C102.202 46.22 100.182 45.84 98.382 45.08C96.622 44.32 95.102 43.22 93.822 41.78C92.582 40.34 91.622 38.62 90.942 36.62C90.262 34.58 89.922 32.3 89.922 29.78C89.922 27.26 90.262 25 90.942 23C91.622 21 92.582 19.3 93.822 17.9C95.102 16.46 96.622 15.36 98.382 14.6C100.182 13.84 102.202 13.46 104.442 13.46C106.682 13.46 108.702 13.84 110.502 14.6C112.302 15.36 113.822 16.46 115.062 17.9C116.342 19.3 117.322 21 118.002 23C118.682 25 119.022 27.26 119.022 29.78C119.022 32.3 118.682 34.58 118.002 36.62C117.322 38.62 116.342 40.34 115.062 41.78C113.822 43.22 112.302 44.32 110.502 45.08C108.702 45.84 106.682 46.22 104.442 46.22ZM104.442 40.04C106.482 40.04 108.082 39.42 109.242 38.18C110.402 36.94 110.982 35.12 110.982 32.72V26.9C110.982 24.54 110.402 22.74 109.242 21.5C108.082 20.26 106.482 19.64 104.442 19.64C102.442 19.64 100.862 20.26 99.702 21.5C98.542 22.74 97.962 24.54 97.962 26.9V32.72C97.962 35.12 98.542 36.94 99.702 38.18C100.862 39.42 102.442 40.04 104.442 40.04ZM131.72 20.3H122.18V14.18H148.94V20.3H139.4V45.5H131.72V20.3ZM181.44 46.22C179.12 46.22 177.04 45.84 175.2 45.08C173.4 44.28 171.86 43.18 170.58 41.78C169.34 40.34 168.38 38.62 167.7 36.62C167.02 34.58 166.68 32.3 166.68 29.78C166.68 27.3 167 25.06 167.64 23.06C168.32 21.06 169.28 19.36 170.52 17.96C171.76 16.52 173.28 15.42 175.08 14.66C176.88 13.86 178.92 13.46 181.2 13.46C183.64 13.46 185.76 13.88 187.56 14.72C189.36 15.56 190.84 16.7 192 18.14C193.16 19.58 194.02 21.26 194.58 23.18C195.18 25.06 195.48 27.08 195.48 29.24V31.76H174.66V32.54C174.66 34.82 175.3 36.66 176.58 38.06C177.86 39.42 179.76 40.1 182.28 40.1C184.2 40.1 185.76 39.7 186.96 38.9C188.2 38.1 189.3 37.08 190.26 35.84L194.4 40.46C193.12 42.26 191.36 43.68 189.12 44.72C186.92 45.72 184.36 46.22 181.44 46.22ZM181.32 19.22C179.28 19.22 177.66 19.9 176.46 21.26C175.26 22.62 174.66 24.38 174.66 26.54V27.02H187.5V26.48C187.5 24.32 186.96 22.58 185.88 21.26C184.84 19.9 183.32 19.22 181.32 19.22ZM241.537 45.5H202.237V14.18H209.917V39.38H218.857V14.18H226.537V39.38H235.477V14.18H243.157V39.38H248.497V53.9H241.537V45.5ZM266.752 46.22C264.432 46.22 262.352 45.84 260.512 45.08C258.712 44.28 257.172 43.18 255.892 41.78C254.652 40.34 253.692 38.62 253.012 36.62C252.332 34.58 251.992 32.3 251.992 29.78C251.992 27.3 252.312 25.06 252.952 23.06C253.632 21.06 254.592 19.36 255.832 17.96C257.072 16.52 258.592 15.42 260.392 14.66C262.192 13.86 264.232 13.46 266.512 13.46C268.952 13.46 271.072 13.88 272.872 14.72C274.672 15.56 276.152 16.7 277.312 18.14C278.472 19.58 279.332 21.26 279.892 23.18C280.492 25.06 280.792 27.08 280.792 29.24V31.76H259.972V32.54C259.972 34.82 260.612 36.66 261.892 38.06C263.172 39.42 265.072 40.1 267.592 40.1C269.512 40.1 271.072 39.7 272.272 38.9C273.512 38.1 274.612 37.08 275.572 35.84L279.712 40.46C278.432 42.26 276.672 43.68 274.432 44.72C272.232 45.72 269.672 46.22 266.752 46.22ZM266.632 19.22C264.592 19.22 262.972 19.9 261.772 21.26C260.572 22.62 259.972 24.38 259.972 26.54V27.02H272.812V26.48C272.812 24.32 272.272 22.58 271.192 21.26C270.152 19.9 268.632 19.22 266.632 19.22ZM260.272 9.2C258.712 9.2 257.612 8.88 256.972 8.24C256.332 7.56 256.012 6.72 256.012 5.72V4.46C256.012 3.46 256.332 2.64 256.972 2C257.612 1.32 258.712 0.979997 260.272 0.979997C261.832 0.979997 262.932 1.32 263.572 2C264.212 2.64 264.532 3.46 264.532 4.46V5.72C264.532 6.72 264.212 7.56 263.572 8.24C262.932 8.88 261.832 9.2 260.272 9.2ZM272.872 9.2C271.312 9.2 270.212 8.88 269.572 8.24C268.932 7.56 268.612 6.72 268.612 5.72V4.46C268.612 3.46 268.932 2.64 269.572 2C270.212 1.32 271.312 0.979997 272.872 0.979997C274.432 0.979997 275.532 1.32 276.172 2C276.812 2.64 277.132 3.46 277.132 4.46V5.72C277.132 6.72 276.812 7.56 276.172 8.24C275.532 8.88 274.432 9.2 272.872 9.2Z" fill="white"/>
</svg>
